<?xml version="1.0" encoding="UTF-8" standalone="no"?>
<!DOCTYPE svg PUBLIC "-//W3C//DTD SVG 1.1//EN" "http://www.w3.org/Graphics/SVG/1.1/DTD/svg11.dtd">
<svg width="100%" height="100%" viewBox="0 0 7800 5322" version="1.1" xmlns="http://www.w3.org/2000/svg" xmlns:xlink="http://www.w3.org/1999/xlink" xml:space="preserve" xmlns:serif="http://www.serif.com/" style="fill-rule:evenodd;clip-rule:evenodd;stroke-linejoin:round;stroke-miterlimit:2;">
    <g transform="matrix(4.16667,0,0,4.16667,-4623.31,-5425.41)">
        <g transform="matrix(1,0,0,1,2554,1307)">
            <path d="M0,0C3.268,3.673 3.509,6.073 3.348,10.855C1.971,23.304 -2.25,35.196 -6.313,46.971C-7.27,49.796 -8.139,52.644 -9,55.5C-10.576,60.699 -12.27,65.851 -14,71C-17.019,80.009 -19.886,89.044 -22.473,98.188L-23.268,100.995C-23.784,102.826 -24.297,104.658 -24.807,106.491C-26.293,111.778 -27.998,116.885 -30,122L-27.905,121.246C-19.698,118.39 -11.425,116.383 -2.938,114.563C6.179,112.589 15.217,110.466 24.23,108.062C30.98,106.262 37.745,104.521 44.516,102.801L47.851,101.953L58.25,99.313L72.863,95.602L76.506,94.676C84.003,92.769 91.494,90.843 98.98,88.898L104.384,87.499C107.665,86.649 110.944,85.793 114.222,84.933L118.621,83.793L122.385,82.809C141.571,78.514 141.571,78.514 149.438,83.188C153.734,86.298 157.05,90.037 159,95C159.219,97.652 159.325,100.164 159.313,102.813L159.361,104.893C159.37,114.148 154.698,121.235 148.563,127.938C132.379,143.386 106.086,146.36 85.168,151.297C77.403,153.13 69.667,155.072 61.938,157.047C57.65,158.132 53.373,159.149 49.031,159.992C43.529,161.062 38.117,162.426 32.688,163.813C24.765,165.818 16.832,167.763 8.875,169.625C2.147,171.208 -4.502,172.942 -11.133,174.898C-17.267,176.679 -23.469,178.222 -29.656,179.806C-31.526,180.288 -33.394,180.78 -35.26,181.282C-37.092,181.762 -38.936,182.203 -40.787,182.605L-43.453,183.246L-45.817,183.763C-50.732,186.548 -52.389,192.603 -53.827,197.776L-54.379,199.852C-56.058,205.846 -57.866,211.765 -59.902,217.648L-60.654,219.824C-61.412,222.009 -62.174,224.192 -62.938,226.375C-66.324,236.083 -69.604,245.809 -72.671,255.623C-75.714,265.333 -78.956,274.976 -82.188,284.625L-84.053,290.207L-87.469,300.424L-88.233,302.707L-89.833,307.48L-90.644,309.9L-91.372,312.068C-92.45,315.383 -93.293,318.753 -94.156,322.129C-95.021,325.07 -96.082,327.904 -97.175,330.766C-98.711,334.924 -100.035,339.151 -101.375,343.375L-102.302,346.292C-104.425,353.029 -106.382,359.797 -108.233,366.613C-109.493,371.236 -110.857,375.809 -112.313,380.375C-117.594,397.019 -122.353,413.835 -126.438,430.813L-127.185,433.918C-129.231,442.61 -130.221,450.888 -130.313,459.813L-130.4,462.643C-130.467,470.031 -129.348,477.34 -124.191,482.978C-118.569,488.059 -113.77,488.293 -106.34,488.211C-101.759,487.922 -98.165,486.871 -94,485L-91.133,483.746C-83.898,480.368 -77.979,476.26 -72,471L-69.027,468.43C-62.269,462.484 -56.534,456.119 -51,449L-49.02,446.613C-39.396,434.992 -31.564,422.021 -24,409L-22.228,405.977C-17.13,397.19 -12.495,388.232 -8,379.125L-6,375.098C-4.672,372.425 -3.346,369.751 -2.021,367.076C0.093,362.81 2.212,358.546 4.336,354.285L5.332,352.281C12.53,337.857 12.53,337.857 19,334C23.547,333.542 27.072,334.536 31.125,336.563C38.06,342.443 43.375,348.465 44.434,357.84C44.458,359.206 44.458,360.572 44.438,361.938L44.41,364.185C43.528,393.05 26.9,423.035 12,447L10.864,448.845C2.822,461.866 -6.234,474.22 -16,486L-18.527,489.09C-30.04,502.97 -42.747,515.936 -57,527L-62.375,531.563C-78.478,544.682 -98.931,554.683 -119.148,559.324C-121.203,559.811 -123.237,560.389 -125.252,561.023C-131.357,562.614 -137.41,562.328 -143.688,562.313L-147.623,562.361C-164.993,562.37 -180.367,557.292 -193,545C-206.246,529.892 -209.569,512.097 -209.375,492.625L-209.365,490.234C-209.292,475.486 -209.173,459.989 -204,446L-208.979,448.49L-213.304,450.651C-216.874,452.434 -220.442,454.221 -224.004,456.02L-225.888,456.969C-227.597,457.829 -229.304,458.692 -231.012,459.555C-233.644,460.828 -236.281,461.931 -239,463L-239.012,465.573C-239.38,509.153 -250.172,547.648 -282,579C-309.223,604.21 -349.634,624.725 -387.371,623.313C-410.435,621.962 -428.49,613.197 -445,597C-446.187,595.664 -447.357,594.311 -448.5,592.938L-451,590L-453,590C-454.437,591.409 -454.437,591.409 -455.945,593.301C-476.154,617.031 -499.817,637.55 -528.994,649.174C-530.951,649.98 -532.855,650.863 -534.77,651.766C-544.071,655.883 -552.863,656.565 -563,656.625L-566.76,656.658C-576.891,656.5 -583.871,654.008 -592,648L-593.641,646.941C-601.316,641.392 -605.935,630.718 -609,622C-609.125,619.188 -609.125,619.188 -609,617L-611.141,619.148C-613.013,621.022 -614.9,622.877 -616.797,624.727C-621.512,629.34 -626.058,633.917 -630.125,639.125C-645.204,657.96 -663.846,673.47 -685,685L-688.051,686.707C-704.779,695.277 -726.5,699.219 -745,694.875C-757.667,690.626 -768.06,683.168 -774.375,671.188C-775.285,669.14 -776.161,667.077 -777,665L-778.25,662.156C-789.994,631.164 -775.783,584.912 -765.683,555.037C-764.265,550.81 -762.918,546.56 -761.563,542.313L-760.661,539.491C-757.558,529.721 -754.751,519.874 -752,510L-751.256,507.335C-749.83,502.226 -748.411,497.114 -747,492L-750.137,492.871C-756.281,494.408 -762.547,495.183 -768.813,496.063C-771.236,496.405 -773.659,496.75 -776.082,497.098L-779.308,497.551C-782.088,497.943 -782.088,497.943 -785,499C-786.789,499.153 -788.582,499.274 -790.375,499.375C-795.004,499.747 -799.506,500.342 -804.063,501.25L-807.285,501.891C-810.743,503.303 -811.474,504.642 -813,508C-813.872,510.38 -813.872,510.38 -814.5,512.813C-815.736,517.323 -817.326,521.638 -819,526C-821.963,533.8 -824.878,541.596 -827.562,549.497C-830.042,556.765 -832.667,563.778 -836.043,570.689C-839.133,577.09 -841.761,583.667 -844.438,590.25C-857.151,621.381 -871.235,652.454 -887.363,681.973C-888.883,684.784 -890.296,687.623 -891.688,690.5C-902.956,713.19 -916.371,735.167 -930.677,756.064C-932.165,758.241 -933.641,760.425 -935.117,762.609C-941.867,772.569 -948.803,782.359 -956,792L-959.07,796.133C-966.571,806.206 -974.142,816.11 -982.629,825.383C-983.93,826.819 -985.224,828.261 -986.486,829.731C-991.385,835.435 -996.611,840.76 -1001.94,846.063L-1004.53,848.666C-1009.52,853.652 -1014.61,858.451 -1020,863L-1021.74,864.47C-1053.83,891.322 -1091.08,911.789 -1134,909C-1153.34,906.799 -1169.64,896.878 -1182.31,882.375C-1189.23,873.197 -1193.93,862.261 -1196,851L-1196.63,847.621C-1203.09,805.862 -1186.63,760.934 -1163.02,726.758C-1159.54,722.001 -1155.85,717.461 -1152,713L-1149.44,710.031C-1134.51,693.049 -1113.09,675.385 -1090,672C-1080.45,671.4 -1071.46,671.316 -1063.62,677.375C-1061.13,679.866 -1059.38,681.763 -1058,685C-1058.39,688.819 -1059.36,690.896 -1061.94,693.699L-1063.86,695.783C-1067.8,699.862 -1071.83,703.841 -1075.88,707.813C-1082.7,714.576 -1089.3,721.243 -1095,729L-1096.83,731.492C-1098.6,733.966 -1100.31,736.472 -1102,739L-1103.71,741.473C-1109.09,749.532 -1113.08,758.164 -1117,767L-1118.29,769.891C-1119.28,772.239 -1120.17,774.591 -1121,777L-1121.9,779.496C-1124.02,786.359 -1124.31,793.061 -1124.38,800.188L-1124.42,802.995C-1124.37,809.863 -1123.69,816.626 -1119.28,822.156L-1117.5,823.5L-1115.72,824.906C-1109.8,828.671 -1100.77,827.664 -1094,827C-1056.7,818.513 -1026.12,774.556 -1006,745L-1004.36,742.591C-990.327,721.955 -977.072,700.842 -965,679L-963.365,676.042C-954.344,659.647 -945.896,642.997 -937.604,626.226C-936.237,623.476 -934.854,620.737 -933.453,618.004C-930.023,611.304 -926.986,604.612 -924.379,597.539C-922.737,593.325 -920.883,589.235 -919,585.125C-914.904,576.157 -911.05,567.096 -907.25,558L-906.419,556.012C-905.103,552.859 -903.789,549.705 -902.478,546.55C-901.514,544.235 -900.547,541.922 -899.577,539.61C-897.531,534.731 -895.508,529.867 -893.75,524.875C-892.089,520.178 -892.089,520.178 -891,518C-909.097,521.018 -909.097,521.018 -927,525L-930.527,525.863C-933.888,526.692 -937.244,527.535 -940.598,528.389C-942.325,528.828 -944.053,529.265 -945.781,529.701C-948.793,530.461 -951.803,531.23 -954.813,532L-957.667,532.718C-963.446,534.208 -968.999,536.025 -974.587,538.117C-977.255,539.093 -979.931,539.875 -982.688,540.563C-987.262,541.708 -991.608,543.301 -996,545L-998.58,545.986C-1050.42,565.909 -1100.3,595.073 -1141.42,632.664C-1143.52,634.565 -1145.64,636.431 -1147.78,638.289C-1161.6,650.354 -1175.44,663.022 -1186.88,677.379C-1188.88,679.845 -1190.94,682.21 -1193.06,684.563C-1197.24,689.222 -1201.13,694.079 -1205,699L-1207.63,702.324C-1213.54,709.796 -1219.33,717.346 -1225,725L-1227.58,728.449C-1238.1,742.556 -1247.62,757.218 -1256.75,772.25L-1257.82,774.006C-1265.01,785.853 -1271.98,797.757 -1278.1,810.199C-1280.24,814.51 -1282.5,818.752 -1284.75,823C-1302.48,856.598 -1317.41,891.46 -1328,928L-1328.76,930.621C-1332.15,942.445 -1335.12,954.3 -1337.48,966.373C-1338.05,969.269 -1338.65,972.16 -1339.25,975.051C-1349.16,1023.62 -1351.21,1075.84 -1334,1123L-1333.21,1125.22C-1327.27,1141.68 -1315.86,1158.47 -1301,1168L-1297.95,1169.96C-1289.37,1175.27 -1280.73,1178.47 -1271,1181L-1268.28,1181.75C-1225.87,1191.48 -1179,1167.82 -1143.89,1146.07C-1130.53,1137.35 -1118.03,1127.46 -1106,1117L-1103.77,1115.07C-1101.84,1113.39 -1099.92,1111.7 -1098,1110L-1095.89,1108.14C-1089.35,1102.34 -1083.12,1096.27 -1076.95,1090.08C-1075.31,1088.43 -1073.66,1086.79 -1072.01,1085.15C-1066.47,1079.61 -1061.05,1074.01 -1056,1068L-1054.62,1066.38C-1052.85,1064.31 -1051.1,1062.23 -1049.35,1060.15C-1046.96,1057.32 -1044.57,1054.5 -1042.16,1051.69C-1036.14,1044.67 -1030.49,1037.46 -1025,1030L-1020.81,1024.5C-1002.33,999.786 -985.264,973.818 -970,947L-968.615,944.577C-963.192,935.055 -958.05,925.423 -953.256,915.57C-951.73,912.447 -950.182,909.334 -948.637,906.219C-940.547,889.856 -940.547,889.856 -933.563,873L-932.689,870.721C-930.865,865.607 -930.884,862.675 -932.938,857.754C-933.645,856.295 -934.353,854.837 -935.063,853.379C-940.137,840.502 -937.902,822.305 -932.711,809.926C-926.267,796.195 -916.81,786.583 -902.992,780.051C-893.175,776.628 -879.635,775.678 -870.063,780.188C-866.63,782.301 -864.135,784.531 -862,788L-860.934,789.648C-859.343,793.656 -859.602,797.979 -859.521,802.244C-859.412,805.124 -859.323,807.444 -857.855,809.969C-851.381,813.567 -841.41,811.109 -834.625,809.438C-816.928,804.204 -801.214,794.935 -785.633,785.25C-780.984,782.363 -776.307,779.521 -771.625,776.688L-769.065,775.124C-761.787,770.731 -755.816,767.429 -747.063,767.563L-744.93,767.588C-738.246,767.805 -733.962,769.064 -729.23,773.754C-724.083,779.529 -723.589,783.365 -723.66,791.141C-724.206,797.339 -726.33,802.428 -729,808L-730.504,811.141C-736.901,823.658 -745.359,834.922 -753.828,846.094C-764.966,860.997 -774.951,876.756 -784,893C-784.689,894.207 -785.379,895.412 -786.07,896.617C-788.42,900.723 -790.722,904.854 -793,909L-794.375,911.502C-809.853,939.881 -821.897,969.706 -830,1001L-830.934,1004.5C-833.484,1014.27 -834.182,1023.42 -834.188,1033.5L-834.225,1036.8C-834.242,1046.33 -833.225,1054.41 -827,1062C-822.525,1065.49 -817.781,1065.57 -812.281,1065.41C-795.555,1063.34 -783.593,1051.12 -772,1040L-769.715,1037.84C-764.853,1033.13 -760.627,1028.01 -756.4,1022.73C-754.769,1020.71 -753.114,1018.72 -751.457,1016.73L-749.573,1014.46C-748.341,1012.97 -747.108,1011.49 -745.873,1010.01C-744.734,1008.64 -743.608,1007.25 -742.497,1005.86C-741.249,1004.31 -739.928,1002.82 -738.59,1001.35C-735.976,995.844 -736.682,990.246 -736.875,984.25C-737.3,954.766 -730.839,927.067 -722,899L-721.269,896.675C-719.1,889.853 -716.756,883.121 -714.02,876.504C-712.849,873.628 -711.773,870.722 -710.688,867.813C-700.965,842.562 -687.319,818.55 -671,797L-669.063,794.223C-657.157,777.703 -641.43,762.936 -625,751L-622.117,748.738C-606.614,736.635 -589.329,726.804 -570.813,720.188L-568.366,719.308C-557.984,715.742 -548.007,714.655 -537.063,714.688L-533.76,714.639C-517.738,714.629 -503.829,719.554 -492.184,730.715C-479.963,743.503 -476.648,756.544 -476.75,773.875L-476.727,777.848C-476.741,785.168 -477.209,791.904 -479,799L-479.504,801.225C-490.341,848.637 -519.558,890.573 -558,920L-560.961,922.371C-580.698,938.089 -602.993,950.631 -625.915,961.043C-627.828,961.921 -629.725,962.825 -631.617,963.746C-648.784,972 -648.784,972 -656,972C-655.606,986.228 -653.414,1001.45 -643.613,1012.56C-632.642,1022.38 -620.709,1022.75 -606.75,1022.19C-567.409,1019.46 -530.803,984.88 -506.277,956.797L-504.57,954.817C-502.426,952.336 -500.215,949.919 -498,947.5C-495.044,944.261 -492.117,941.005 -489.25,937.688C-486.296,934.3 -483.293,931.063 -480,928L-478,928L-478.094,924.098C-478.086,919.081 -477.428,914.359 -476.5,909.438L-475.969,906.609C-469.799,874.959 -460.58,844.248 -446.932,815.001C-446.277,813.594 -445.625,812.186 -444.975,810.776C-440.105,800.219 -435.038,789.948 -429,780L-427.856,778.108C-418.506,762.711 -408.402,747.952 -397,734L-395.609,732.292C-386.378,721.018 -376.509,710.994 -365,702L-362.27,699.824C-348.932,689.467 -334.275,681.137 -319,674L-316.039,672.574C-307.378,668.656 -298.212,666.626 -288.986,664.493C-287.302,664.075 -285.646,663.549 -284,663C-254.837,660.889 -254.837,660.889 -244.18,669.199C-242.431,670.746 -240.719,672.335 -239.059,673.977C-236.972,676.154 -236.972,676.154 -234,678L-232.602,675.289C-224.355,659.78 -213.085,649.998 -196.461,644.099C-189.39,641.95 -182.673,641.482 -175.313,641.5L-172.053,641.414C-165.174,641.397 -160.209,642.285 -155,647C-152.012,651.482 -152.529,655.524 -153.5,660.629C-156.942,675.005 -161.992,688.992 -166.693,702.99C-169.05,710.044 -171.281,717.114 -173.326,724.264C-174.949,729.92 -176.786,735.482 -178.691,741.047C-179.823,744.396 -180.849,747.773 -181.875,751.156C-183.893,757.751 -186.141,764.248 -188.438,770.75C-191.228,778.723 -193.886,786.69 -196.194,794.815C-197.757,800.281 -199.504,805.673 -201.313,811.063L-202.201,813.712C-203.461,817.456 -204.727,821.197 -205.998,824.937C-220.977,866.136 -220.977,866.136 -227.25,909L-227.313,911.078C-227.355,916.673 -226.069,920.701 -222.313,924.875C-218.685,926.64 -215.87,926.804 -212,926C-200.939,922 -193.08,915.324 -185,907L-182.387,904.344C-170.108,891.34 -160.612,876.538 -151.392,861.293C-149.626,858.383 -147.823,855.5 -146,852.625L-144.563,850.352C-143,848 -143,848 -140.563,844.918C-137.232,840.271 -135.704,835.095 -134,829.688L-132.958,826.477C-130.693,819.422 -128.635,812.325 -126.723,805.167C-125.515,800.69 -124.109,796.354 -122.5,792C-120.337,786.141 -118.633,780.249 -117.013,774.226C-115.369,768.174 -113.5,762.214 -111.563,756.25C-109.194,748.942 -107.029,741.614 -105.063,734.188C-102.619,724.963 -99.776,715.902 -96.823,706.829C-94.685,700.232 -92.774,693.645 -91.055,686.926C-88.681,677.867 -85.767,668.944 -83,660L-82.26,657.6C-80.859,653.06 -79.434,648.529 -78,644L-76.945,640.566C-73.187,628.664 -67.28,621.563 -56.188,615.75C-50.592,613.09 -44.999,611.461 -39,610L-35.625,608.875C-28.105,606.368 -18.477,605.293 -10.938,608.188C-7.614,610.238 -6.075,611.686 -4,615C-3.383,618.052 -3.385,621.019 -3.438,624.125L-3.453,626.755C-3.713,636.239 -6.151,645.005 -9,654C-4.907,651.005 -1.949,647.592 1.063,643.563C5.825,637.34 10.932,631.58 16.305,625.883C18.407,623.635 20.407,621.363 22.375,619C30.376,609.786 39.731,601.567 50,595C51.149,594.242 52.298,593.483 53.445,592.723C68.05,583.113 81.469,576.857 99.188,576.688L102.189,576.6C112.288,576.514 121.355,579.558 128.742,586.68C137.017,595.523 141.391,605.815 141.125,617.875L141.098,620.25C141.074,622.167 141.038,624.083 141,626C144.595,622.489 147.951,618.846 151.188,615L152.631,613.293C155.874,609.427 158.964,605.467 162,601.438C166.542,595.439 171.439,589.871 176.635,584.432C177.949,583.053 179.247,581.658 180.543,580.262C193.149,567.083 208.207,556.971 224,548L225.862,546.93C235.435,541.507 245.368,538.521 256,536L258.539,535.387C271.813,533.301 287.399,534.603 299.063,541.688C308.019,548.524 312.862,557.696 314.582,568.734C318.966,608.235 302.456,648.686 287.777,684.574C286.166,688.534 284.717,692.525 283.313,696.563C281.548,701.626 279.473,706.425 277.191,711.273C275.51,715.122 274.243,719.072 272.992,723.078C272.062,725.817 270.961,728.432 269.803,731.08C268.288,734.702 267.033,738.416 265.75,742.125L264.836,744.762C264.204,746.593 263.573,748.424 262.944,750.256C262.33,752.041 261.713,753.825 261.091,755.607C256.622,768.438 252.889,781.358 249.611,794.544C249.221,796.112 248.826,797.678 248.424,799.243C247.202,804.019 246.301,808.77 245.538,813.636C245.199,815.757 244.847,817.876 244.478,819.992C240.609,842.962 241.157,866.886 254,887C259.097,892.975 266.222,897.514 274,899C295.005,900.61 314.995,893.624 331,880C339.613,872.127 346.161,863.042 352,853L353.078,851.196C358.8,841.554 362.312,831.869 365,821L365.617,818.555C367.351,806.982 367.402,793.837 360.875,783.875C353.827,774.497 346.205,769.959 335.188,766.438C328.755,764.29 328.755,764.29 327,762C326.078,758.011 326.212,754.562 328.07,750.879C335.091,741.039 344.298,734.781 356,732C366.746,730.94 377.225,731.113 387,736L389.938,737.25C403.808,743.477 414.396,754.628 420.563,768.52C421.851,771.997 422.989,775.432 424,779L424.782,781.666C426.813,789.033 427.51,795.872 427.438,803.5L427.417,806.92C427.221,817.313 425.578,826.962 423,837L422.433,839.358C419.817,850.226 416.206,860.111 411,870L409.968,871.976C402.601,885.937 393.965,898.601 383,910L380.602,912.52C356.499,937.269 326.004,954.667 292,961L289.234,961.555C281.258,963.051 273.479,963.349 265.375,963.313L263.382,963.305C232.9,963.127 208.384,954.384 186.633,932.633C178.439,923.997 172.966,914.174 169,903L168.164,900.801C163.308,887.41 163.558,873.489 163.563,859.438L163.56,856.261C163.591,839.6 164.821,824.186 169,808C169.549,805.741 170.097,803.482 170.645,801.223C173.401,790.079 176.507,779.029 179.688,768L180.515,765.126C182.162,759.526 184.046,754.058 186.074,748.585C187.367,744.976 188.412,741.317 189.438,737.625C191.224,731.387 193.276,725.347 195.684,719.316C196.645,716.894 197.574,714.472 198.473,712.027L199.242,709.938C199.725,708.624 200.205,707.31 200.681,705.994C202.072,702.232 203.636,698.604 205.341,694.973C207.978,689.195 210.123,683.32 212.172,677.313L213.287,674.085C214.446,670.725 215.598,667.363 216.75,664L219.113,657.145C224.063,644.565 224.063,644.565 226.125,631.438L226.133,628.496C226.167,626 226.167,626 225,624C217.43,621.477 210.986,623.653 204,627C188.55,636.546 176.203,650.147 166,665L164.512,667.151C151.612,685.886 139.573,705.335 130,726L129.092,727.949C125.377,735.995 122.089,744.123 119.304,752.539C117.817,756.958 116.059,761.196 114.18,765.465C110.712,773.476 107.913,781.65 105.188,789.938L104.407,792.291C100.399,804.384 96.715,816.542 93.234,828.796C89.785,840.91 85.926,852.869 82.015,864.841C80.965,868.11 79.955,871.388 78.953,874.672C65.398,918.965 65.398,918.965 45.567,929.776C41.161,931.877 36.595,933.118 31.875,934.313L28.826,935.094C17.124,937.924 7.377,937.947 -4.188,934.313C-7.963,931.578 -9.578,928.125 -10.461,923.68C-11.14,912.589 -7.016,901.532 -4,891L-3.125,887.898C-0.089,877.133 3.108,866.448 6.73,855.866C9.155,848.713 11.241,841.468 13.289,834.199C15.676,825.821 18.433,817.583 21.216,809.331C22.465,805.616 23.697,801.896 24.93,798.176C39.589,754.019 39.589,754.019 45.922,737.891C47.46,733.767 48.716,729.574 49.977,725.359C51.048,721.842 52.201,718.36 53.375,714.875C55.353,708.971 57.293,703.056 59.188,697.125L59.945,694.785C62.362,687.173 64.294,679.987 64.125,671.938L64.07,668.527L64,666C57.626,663.228 52.392,662.67 45.813,665.25C38.157,669.15 32.076,673.982 26,680L23.324,682.527C-3.5,708.365 -21.474,743.291 -36.569,776.843C-38.077,780.17 -39.62,783.479 -41.164,786.789C-43.322,791.457 -45.295,796.11 -47.063,800.938L-47.804,802.95C-49.827,808.457 -51.789,813.986 -53.727,819.523C-54.688,822.149 -55.705,824.712 -56.773,827.293C-59.894,835.039 -62.394,843.008 -65,850.938C-66.04,854.093 -67.081,857.248 -68.125,860.402L-68.881,862.69C-70.276,866.891 -71.729,871.062 -73.266,875.215C-74.657,878.981 -75.8,882.719 -76.75,886.625C-79.395,896.831 -82.701,906.823 -85.974,916.842C-86.952,919.853 -87.91,922.871 -88.863,925.891C-93.573,940.672 -97.843,953.177 -111.695,961.648C-125.402,968.699 -144.936,973.956 -160.262,970.488C-164.38,968.994 -166.996,966.847 -169,963C-169.691,957.19 -169.428,952.361 -167,947C-169.621,949.546 -172.018,952.022 -174.313,954.875C-176.835,957.952 -179.692,960.459 -182.723,963.027C-184.328,964.418 -185.895,965.852 -187.434,967.316C-206.606,985.521 -232.055,999.341 -258.875,999.375L-261.941,999.449C-274.912,999.499 -285.478,994.402 -294.813,985.563C-299.726,980.388 -302.311,974.897 -304,968C-307.335,969.112 -308.104,969.995 -310.313,972.625L-312.18,974.816C-313.294,976.153 -314.405,977.494 -315.508,978.84C-318.694,982.679 -322.092,985.919 -325.898,989.141C-328.041,991.037 -329.972,993.046 -331.938,995.125C-347.176,1010.44 -367.875,1024.24 -389.125,1029.19L-391.137,1029.69C-406.797,1033.47 -426.038,1034.84 -441,1028L-443.867,1026.71C-456.776,1020.3 -464.94,1010.25 -472,998C-472.372,996.677 -472.715,995.345 -473,994C-476.42,997.417 -479.832,1000.84 -483.238,1004.27L-487.764,1008.82C-488.792,1009.85 -489.819,1010.88 -490.844,1011.92C-496.195,1017.31 -501.544,1022.65 -507.356,1027.56C-509.048,1029.04 -510.585,1030.61 -512.125,1032.25C-517.572,1037.76 -523.836,1042.34 -530,1047L-532.061,1048.57C-543.797,1057.48 -556.052,1064.98 -569,1072L-570.951,1073.09C-584.353,1080.53 -599.132,1084.71 -613.813,1088.88L-615.964,1089.49C-640.996,1096.36 -671.843,1093.75 -694.543,1081.11C-699.437,1078.21 -703.763,1074.78 -708,1071L-710.207,1069.15C-714.27,1065.72 -717.729,1062.19 -721,1058C-725.242,1059.54 -727.298,1062.69 -729.875,1066.19C-735.567,1073.66 -741.8,1080.49 -748.318,1087.24C-749.866,1088.86 -751.381,1090.5 -752.891,1092.16C-774.984,1115.9 -814.843,1138.69 -847.633,1140.71C-866.325,1141.11 -885.567,1138.41 -899.895,1125.26C-912.219,1112.29 -915.728,1094.6 -915.375,1077.31L-915.332,1073.09C-914.977,1046.73 -914.977,1046.73 -911,1037C-910.657,1035.21 -910.318,1033.43 -910.012,1031.63C-908.068,1020.6 -904.602,1010.1 -901.063,999.5L-900.278,997.134C-897.569,988.985 -894.744,981.037 -891.057,973.268C-889.64,970.227 -888.539,967.105 -887.438,963.938C-877.135,935.656 -862.736,905.104 -846,880L-848.336,879.924C-851.87,879.807 -855.404,879.685 -858.938,879.563L-862.611,879.443C-869.125,879.214 -875.535,878.83 -882,878C-882.756,879.455 -883.504,880.915 -884.25,882.375L-885.516,884.836C-887.142,888.302 -888.553,891.821 -889.96,895.381C-898.384,916.595 -908.21,937.252 -919.043,957.336C-920.836,960.666 -922.524,964.041 -924.188,967.438C-925.94,970.986 -927.793,974.385 -929.875,977.75C-932.433,981.916 -934.651,986.184 -936.813,990.563C-944.672,1006.45 -953.252,1021.82 -962.277,1037.08C-963.852,1039.75 -965.412,1042.42 -966.969,1045.1C-978.853,1065.4 -992.212,1084.71 -1007,1103L-1008.72,1105.14C-1011.99,1109.19 -1015.27,1113.23 -1018.58,1117.26C-1019.86,1118.83 -1021.12,1120.4 -1022.39,1121.98C-1026.91,1127.61 -1031.64,1132.97 -1036.58,1138.24C-1039.12,1140.94 -1041.59,1143.69 -1044,1146.52C-1049.07,1152.34 -1054.59,1157.73 -1060.05,1163.18C-1061.93,1165.06 -1063.81,1166.94 -1065.69,1168.82C-1071.62,1174.76 -1077.57,1180.6 -1084,1186C-1085.13,1186.98 -1086.26,1187.97 -1087.39,1188.96C-1095.05,1195.6 -1102.85,1201.97 -1111,1208L-1112.65,1209.23C-1139.88,1229.26 -1170.79,1248.04 -1203.06,1258.5L-1205.82,1259.4C-1208.54,1260.28 -1211.27,1261.14 -1214,1262L-1216.31,1262.74C-1234.95,1268.59 -1255.11,1272.04 -1274.67,1272.24L-1277.09,1272.27C-1293.79,1272.43 -1309.78,1272.44 -1326,1268C-1327.45,1267.64 -1328.91,1267.29 -1330.36,1266.94C-1346.11,1262.91 -1360.94,1255.65 -1374,1246L-1376.38,1244.26C-1382.22,1239.85 -1387.63,1234.98 -1393,1230L-1394.8,1228.4C-1429.48,1196.12 -1442.61,1138.39 -1444.29,1092.89C-1444.43,1086.76 -1444.42,1080.63 -1444.38,1074.5L-1444.37,1071.24C-1444.3,1053.02 -1443.39,1035.07 -1441,1017L-1440.49,1013.08C-1439.14,1003.14 -1439.14,1003.14 -1438,1002C-1437.55,999.273 -1437.14,996.549 -1436.75,993.813C-1431.69,960.303 -1420.57,928.176 -1409.19,896.375L-1408.13,893.419C-1405.98,887.469 -1403.63,881.62 -1401.18,875.79C-1400.17,873.413 -1399.19,871.029 -1398.23,868.637C-1392.79,855.211 -1386.68,842.192 -1380.14,829.27C-1378.66,826.322 -1377.2,823.36 -1375.76,820.387C-1369.67,807.856 -1362.85,795.841 -1355.71,783.875C-1354.13,781.215 -1352.56,778.547 -1351,775.875C-1343.18,762.57 -1334.65,749.772 -1326,737L-1322.51,731.816C-1313.24,718.095 -1303.43,704.86 -1293,692L-1289.19,687.188C-1284.72,681.607 -1280.11,676.157 -1275.47,670.721C-1273.99,668.989 -1272.52,667.253 -1271.05,665.516C-1265.21,658.637 -1259.24,651.919 -1253.08,645.328C-1250.64,642.714 -1248.27,640.046 -1245.89,637.371C-1240.94,631.859 -1235.76,626.604 -1230.51,621.376C-1228.93,619.807 -1227.36,618.233 -1225.8,616.658C-1220.9,611.758 -1215.96,606.952 -1210.69,602.447C-1208.3,600.401 -1206,598.261 -1203.69,596.125C-1199.26,592.087 -1194.72,588.227 -1190.06,584.465C-1187.82,582.659 -1185.6,580.84 -1183.38,579.004C-1159.54,559.278 -1133.57,541.904 -1106.71,526.553C-1103.92,524.953 -1101.14,523.327 -1098.37,521.699C-1084.95,513.895 -1071.2,507.245 -1057,501L-1052.21,498.848C-1048.7,497.288 -1045.16,495.855 -1041.56,494.5C-1034.78,491.917 -1028.02,489.286 -1021.34,486.441C-986.061,471.471 -948.193,462.534 -910.449,456.404C-908.203,456.033 -905.962,455.641 -903.723,455.234L-901.688,454.866C-900.366,454.624 -899.046,454.377 -897.726,454.124C-893.276,453.301 -888.854,452.774 -884.348,452.348L-880.8,451.953C-878.478,451.698 -876.15,451.486 -873.819,451.324C-870.491,450.931 -867.998,450.51 -865,449C-862.418,445.235 -861.211,441.371 -860,437C-859.32,434.997 -858.634,432.997 -857.938,431C-857.289,429.001 -856.643,427.001 -856,425C-855.316,422.916 -854.628,420.832 -853.938,418.75L-853.027,415.984C-852.28,413.813 -851.492,411.656 -850.68,409.508C-848.383,403.427 -846.301,397.271 -844.188,391.125L-842.845,387.232C-840.134,379.356 -837.452,371.47 -834.889,363.543C-833.891,360.492 -832.804,357.547 -831.531,354.598C-829.745,350.402 -828.34,346.148 -826.938,341.813C-824.008,332.889 -820.915,324.03 -817.75,315.188L-816.465,311.595C-813.187,302.465 -813.187,302.465 -811.539,298.156C-808.803,290.915 -806.401,283.543 -803.912,276.213C-800.802,267.061 -797.542,257.997 -794,249L-792.523,245.203C-791.754,243.224 -790.983,241.244 -790.211,239.266C-788.706,235.208 -787.353,231.11 -786,227L-784.133,221.398L-783.145,218.436L-781.06,212.182C-779.526,207.584 -777.993,202.985 -776.473,198.383C-774.645,192.857 -772.815,187.342 -770.73,181.906C-767.921,174.576 -765.343,167.159 -762.75,159.75L-761.86,157.206C-760.175,152.386 -758.503,147.562 -756.84,142.734L-755.753,139.587C-755.055,137.564 -754.359,135.54 -753.665,133.515L-752.699,130.719L-751.85,128.248C-751.03,126.078 -750.076,124.053 -749,122L-751.891,122.777C-762.457,125.596 -773.057,128.27 -783.671,130.906C-802.95,135.697 -822.005,140.951 -841.021,146.703C-847.113,148.545 -853.211,150.354 -859.336,152.086C-864.73,153.618 -870.065,155.262 -875.375,157.063L-877.582,157.799C-886.555,160.814 -895.287,164.303 -904,168L-907.66,169.527C-929.059,178.565 -948.319,189.905 -966,205L-967.98,206.609C-984.994,220.58 -1001.02,244.326 -1003.71,266.469C-1005.29,285.813 -1002.53,304.515 -990.219,320.281C-988.835,321.874 -987.421,323.44 -986,325L-986,327L-984.215,327.805C-981.942,329.031 -980.422,330.344 -978.563,332.125C-965.825,343.45 -949.943,349.212 -934.015,354.465C-927.749,356.573 -922.045,358.692 -917.563,363.75C-914.533,369.874 -915.159,377.412 -916,384C-919.259,393.383 -927.51,400.295 -936,405C-954.821,413.037 -980.083,410.158 -998.75,402.816C-1032.62,388.689 -1058.63,364.578 -1072.69,330.586C-1074.92,324.498 -1076.52,318.311 -1078,312L-1078.55,310.165C-1080.54,302.852 -1080.27,295.378 -1080.21,287.862C-1080.19,285.505 -1080.18,283.149 -1080.19,280.793C-1080.14,260.138 -1080.14,260.138 -1078,258C-1077.63,255.753 -1077.28,253.502 -1076.94,251.25C-1069.95,211.102 -1041.58,175.177 -1009.65,151.248C-1008.12,150.086 -1006.6,148.896 -1005.08,147.703C-996.517,141.04 -987.356,135.473 -978,130L-975.804,128.714C-945.715,111.243 -913.181,98.301 -880,88L-877.694,87.284C-868.333,84.408 -858.882,81.854 -849.429,79.3C-844.005,77.832 -838.598,76.317 -833.202,74.749C-824.219,72.139 -815.204,69.759 -806.12,67.527C-795.729,64.962 -785.389,62.217 -775.044,59.474C-764.332,56.636 -753.603,53.889 -742.841,51.248C-732.181,48.631 -721.667,45.81 -711.242,42.367C-706.785,40.902 -702.278,39.661 -697.75,38.438C-691.048,36.617 -684.484,34.565 -677.912,32.314C-674.187,31.051 -670.438,29.878 -666.68,28.719C-658.446,26.162 -650.252,23.491 -642.071,20.771C-639.739,19.996 -637.405,19.229 -635.07,18.461C-626.548,15.64 -618.247,12.559 -610,9C-605.717,7.228 -601.422,5.487 -597.125,3.75L-593.828,2.398L-590.633,1.109L-587.786,-0.048C-582.6,-1.82 -576.429,-3.2 -571,-2C-565.246,1.243 -561.728,5.945 -559.625,12.141C-557.242,23.043 -558.776,34.527 -564.285,44.273C-565.741,46.326 -567.293,48.151 -569,50L-570.895,52.133C-588.871,71.277 -615.694,83.181 -640,92L-643.457,93.309C-650.35,95.87 -657.161,97.896 -664.355,99.422C-667.087,99.97 -667.087,99.97 -670,101L-670.309,104.438C-670.913,109.229 -672.389,113.489 -674.063,118C-674.696,119.753 -675.327,121.507 -675.957,123.262L-676.963,126.06C-679.161,132.293 -681.196,138.582 -683.246,144.865C-684.588,148.938 -685.925,152.968 -687.645,156.898C-689.109,160.248 -690.096,163.565 -691.059,167.082C-691.885,169.644 -692.826,172.08 -693.844,174.57C-696.174,180.32 -698.13,186.169 -700.063,192.063L-701.088,195.166C-701.723,197.088 -702.357,199.011 -702.989,200.934C-703.798,203.388 -704.614,205.84 -705.433,208.291C-706.969,212.895 -708.473,217.508 -709.969,222.125L-711.684,227.408L-712.582,230.174C-717.166,244.284 -721.758,258.391 -726.431,272.471C-726.887,273.846 -727.342,275.221 -727.796,276.596C-730.028,283.354 -732.347,290.026 -735.048,296.611C-736.778,300.953 -738.244,305.388 -739.75,309.813C-743.589,320.973 -747.751,331.991 -752,343C-755.249,351.437 -758.401,359.832 -760.848,368.547C-761.833,371.499 -762.952,374.26 -764.184,377.113C-767.955,386.041 -770.918,395.255 -774,404.438C-783.822,433.643 -783.822,433.643 -787,440C-785.354,439.86 -783.708,439.713 -782.063,439.563L-779.285,439.316C-777.038,439.24 -777.038,439.24 -776,438C-772.981,437.499 -769.968,437.047 -766.938,436.625C-760.364,435.68 -753.83,434.649 -747.313,433.375C-743.18,432.568 -739.133,431.853 -734.938,431.5C-730.45,430.93 -727.801,430.51 -724,428C-719.01,420.766 -716.606,412.213 -714.176,403.859C-713.219,400.62 -712.077,397.476 -710.868,394.321C-708.973,389.253 -707.258,384.118 -705.5,379C-693.18,343.137 -693.18,343.137 -684,338C-679.138,335.875 -674.112,334.246 -669.055,332.657C-666.241,331.757 -663.47,330.743 -660.688,329.75C-649.804,326.206 -634.155,322.878 -623.145,327.395C-620,329 -620,329 -618,331C-618.342,337.7 -619.858,343.837 -621.75,350.25L-622.56,353.045C-624.365,359.16 -626.452,365.045 -628.848,370.953C-630.514,375.359 -631.716,379.865 -632.91,384.418C-633.754,387.193 -634.682,389.75 -635.781,392.422C-638.392,398.821 -640.554,405.363 -642.727,411.92C-643.429,414.036 -644.137,416.15 -644.846,418.264C-647.192,425.297 -649.423,432.348 -651.477,439.473C-653.776,447.43 -656.408,455.248 -659.134,463.068C-664.454,478.342 -669.564,493.681 -674.563,509.063L-675.457,511.811C-681.759,531.155 -681.759,531.155 -687.438,550.688C-688.714,555.354 -689.997,560.017 -691.359,564.66C-694.986,577.103 -697.122,589.066 -697.375,602.063L-697.454,604.517C-697.465,608.421 -697.252,610.555 -695.289,614.016C-691.842,617.004 -689.476,616.762 -685.063,616.539C-667.329,613.418 -652.938,596.141 -642.357,582.721C-641.375,581.476 -640.389,580.234 -639.4,578.994C-612.388,545.09 -592.702,506.106 -579,465L-577,465L-576.668,463.094L-576.188,460.5L-575.73,457.969C-574.797,454.176 -573.424,450.632 -572,447C-568.259,437.251 -564.753,427.47 -561.536,417.534C-560.212,413.48 -558.822,409.501 -557.184,405.563C-553.902,397.497 -551.362,389.156 -548.688,380.875L-547.816,378.191C-544.041,366.556 -540.365,354.907 -537.093,343.119C-535.716,338.2 -534.065,333.669 -532,329C-531.354,327.028 -530.728,325.049 -530.125,323.063C-526.673,312.679 -521.13,305.218 -511.57,299.563C-496.311,292.142 -475.727,286.398 -458.859,290.824C-453.405,293.191 -453.405,293.191 -452,296C-451.499,302.308 -453.037,307.772 -454.75,313.813L-455.516,316.643C-457.047,322.159 -458.908,327.401 -461.094,332.689C-462.375,335.957 -463.22,339.217 -464.063,342.625C-465.177,347.113 -466.489,351.366 -468.155,355.679C-470.365,361.749 -472.091,367.997 -473.951,374.182C-475.831,380.372 -477.859,386.462 -480.109,392.527C-481.339,395.941 -482.33,399.381 -483.313,402.875C-485.491,410.483 -487.955,417.979 -490.481,425.478C-492.4,431.18 -494.237,436.898 -495.98,442.656C-497.25,446.822 -498.561,450.973 -499.875,455.125L-500.646,457.566C-501.941,461.66 -503.239,465.753 -504.543,469.844C-507.37,478.73 -510.101,487.637 -512.711,496.59C-514.162,501.566 -515.64,506.534 -517.125,511.5L-517.857,513.963C-519.004,517.794 -520.193,521.599 -521.488,525.383C-523.261,530.649 -524.668,535.998 -526.063,541.375L-526.838,544.297C-531.746,561.12 -531.746,561.12 -530.23,578.09C-528.563,580.594 -526.713,581.841 -523.793,582.492C-510.746,583.191 -500.879,575.076 -491.59,566.871C-470.27,546.453 -457.934,518.006 -445.008,492C-439.751,481.444 -434.24,471.024 -428.656,460.637C-423.434,450.901 -418.576,441.056 -414,431L-412.562,427.842C-403.626,408.168 -394.899,388.398 -386.923,368.312C-386.071,366.178 -385.201,364.053 -384.324,361.93C-376.458,342.629 -371.449,323.014 -368.129,302.482C-364.39,279.78 -353.753,259.435 -334.793,245.672C-331.592,243.622 -328.364,241.767 -325,240L-322.434,238.621C-316.374,235.9 -310.363,235.571 -303.813,235.438L-301.256,235.355C-295.068,235.394 -290.736,236.954 -286,241C-282.23,246.655 -283.277,254.055 -284.467,260.55C-285.44,265.036 -286.555,269.48 -287.711,273.922C-293.838,297.684 -291.749,321.373 -282,344C-281.221,346.266 -280.468,348.542 -279.738,350.824C-276.871,359.61 -273.557,368.209 -270.188,376.813L-269.256,379.195C-263.957,392.749 -263.957,392.749 -258.375,406.188L-257.485,408.341C-255.984,411.796 -255.984,411.796 -253.066,414.008C-237.674,413.95 -217.256,399.746 -205,391L-202.939,389.537C-200.761,387.977 -198.596,386.4 -196.438,384.813L-194.415,383.336C-186.622,377.481 -183.148,371.762 -180.438,362.5L-179.534,359.54C-177.583,353.107 -175.7,346.651 -173.922,340.168C-172.73,336.071 -171.363,332.043 -170,328L-163.115,307.346L-162.4,305.201L-160.985,300.955L-157.928,291.782C-156.191,286.568 -154.45,281.356 -152.703,276.145C-142.448,246.018 -142.448,246.018 -133.546,215.478C-132.649,212.097 -131.624,209.092 -130,206C-134.377,206.928 -138.752,207.867 -143.125,208.813L-145.218,209.265C-154.704,211.324 -164.159,213.494 -173.594,215.773L-176.606,216.5C-181.516,217.688 -186.424,218.884 -191.329,220.091C-200.81,222.408 -210.302,224.543 -219.898,226.332L-222.613,226.848C-237.01,229.435 -237.01,229.435 -242.688,225.563C-247.32,222.108 -250.33,218.586 -252,213C-253.15,202.318 -251.948,193.006 -246,184C-239.427,175.88 -229.041,173.127 -219.313,170.563L-216.033,169.67C-207.748,167.428 -199.439,165.274 -191.127,163.136C-184.635,161.457 -178.207,159.618 -171.787,157.683C-166.695,156.163 -161.578,154.957 -156.391,153.816C-151.596,152.662 -146.888,151.246 -142.174,149.801C-137.914,148.508 -133.654,147.445 -129.303,146.507C-125.384,145.644 -121.504,144.652 -117.625,143.625L-115.223,143.031C-110.827,141.861 -110.827,141.861 -107.117,139.348C-105.495,135.939 -104.488,132.449 -103.5,128.813C-103.066,127.276 -102.631,125.739 -102.195,124.203L-101.571,121.986C-100.703,118.969 -99.698,116.005 -98.68,113.035C-97.654,109.964 -96.75,106.858 -95.844,103.75C-95.138,101.45 -94.395,99.171 -93.63,96.89C-92.086,92.27 -90.575,87.639 -89.074,83.004L-87.408,77.869L-84.842,69.953L-82.324,62.191L-81.491,59.624C-79.342,53.018 -77.152,46.427 -74.925,39.848C-73.648,36.051 -72.49,32.257 -71.5,28.375C-68.552,18.48 -60.019,10.676 -51.18,5.824C-36.642,-1.769 -15.059,-10.63 0,0ZM-347,385C-347.915,388.83 -349.106,392.539 -350.332,396.279L-351.25,399.063C-353.015,404.537 -354.874,409.883 -357.27,415.117C-359.108,419.054 -360.89,423.008 -362.62,426.994C-363.249,428.446 -363.88,429.897 -364.512,431.348C-365.488,433.586 -366.464,435.824 -367.438,438.063C-370.788,445.825 -373.986,453.592 -378.387,460.832C-380.512,464.129 -381.992,467.168 -383,471C-380,471 -380,471 -377.004,469.92C-375.116,469.145 -373.229,468.369 -371.34,467.598L-369.265,466.751C-366.482,465.607 -363.696,464.471 -360.903,463.351C-358.166,462.253 -355.431,461.152 -352.697,460.047L-348.563,458.375C-340.579,455.166 -332.616,452.029 -325,448C-324.602,438.691 -324.602,438.691 -333.313,416.813C-337.055,407.475 -340.514,398.079 -343.785,388.566L-345,385L-347,385ZM-282.313,724.625C-291.546,724.742 -299.149,726.259 -306.895,731.516L-309,733C-317.812,738.79 -325.133,745.617 -332.353,753.245L-334,755C-357.405,779.717 -375.45,812.845 -385.375,845.313C-386.121,848.056 -386.908,850.749 -387.884,853.42C-398.274,881.288 -408.63,918.424 -396,947C-393.649,951.036 -390.602,953.884 -386.152,955.539C-379.344,956.997 -369.581,957.151 -363.137,954.125L-361,953C-335.418,940.35 -318.659,914.084 -304.94,889.956L-303.625,887.625C-300.668,882.42 -298.166,877.206 -296.005,871.622C-295.33,869.86 -294.643,868.103 -293.944,866.351C-282.319,837.296 -271.685,807.189 -264.405,776.722C-263.95,774.811 -263.475,772.906 -263,771C-261.5,766.018 -260.014,761.107 -259,756C-258.239,748.12 -257.508,738.963 -262.262,732.207L-263.688,730.813L-265.074,729.395C-269.866,725.924 -274.337,724.635 -280.153,724.583L-282.313,724.625ZM-320,497C-326.288,496.708 -326.288,496.708 -337.739,502.173L-343.142,504.763L-346.02,506.141C-349.022,507.579 -352.026,509.012 -355.037,510.432C-369.807,517.374 -389.038,523.819 -398.063,538.313C-399.709,544.79 -400.445,550.516 -397,556.438C-388.845,563.403 -381.521,563.809 -371,563L-370,562C-355.638,559.566 -344.338,552.396 -334.938,541.438C-325.381,529.009 -318.653,512.898 -320,497ZM-546.844,776.277C-566.615,764.565 -591.733,797.803 -601.57,811.065L-603,813C-620.115,835.885 -633.964,860.035 -643.149,887.212L-643.813,889.188C-646.311,896.521 -648.652,903.182 -648,911L-645.938,911.156C-625.237,910.055 -602.639,889.283 -588.891,875.228C-566.212,851.496 -540.109,819.53 -540.797,784.891C-541.215,780.994 -541.215,780.994 -546.844,776.277Z" style="fill:rgb(80,135,72);"/>
        </g>
    </g>
</svg>
